<?xml version="1.0" encoding="UTF-8" standalone="no"?>
<!-- Created with Inkscape (http://www.inkscape.org/) -->

<svg
   width="1366"
   height="768"
   viewBox="0 0 1366 768"
   version="1.1"
   id="svg5"
   inkscape:version="1.1.2 (0a00cf5339, 2022-02-04)"
   sodipodi:docname="spacemacs-buffer-mockup.svg"
   xmlns:inkscape="http://www.inkscape.org/namespaces/inkscape"
   xmlns:sodipodi="http://sodipodi.sourceforge.net/DTD/sodipodi-0.dtd"
   xmlns="http://www.w3.org/2000/svg"
   xmlns:svg="http://www.w3.org/2000/svg">
  <sodipodi:namedview
     id="namedview7"
     pagecolor="#ffffff"
     bordercolor="#111111"
     borderopacity="1"
     inkscape:pageshadow="0"
     inkscape:pageopacity="0"
     inkscape:pagecheckerboard="1"
     inkscape:document-units="px"
     showgrid="false"
     inkscape:zoom="0.49793794"
     inkscape:cx="4.0165648"
     inkscape:cy="629.59654"
     inkscape:window-width="1920"
     inkscape:window-height="1018"
     inkscape:window-x="0"
     inkscape:window-y="25"
     inkscape:window-maximized="1"
     inkscape:current-layer="layer1">
    <inkscape:grid
       type="xygrid"
       id="grid873" />
  </sodipodi:namedview>
  <defs
     id="defs2">
    <rect
       x="-254.07665"
       y="287.97917"
       width="112.95878"
       height="41.530101"
       id="rect133717" />
    <rect
       x="-786.32343"
       y="12.62194"
       width="594.53921"
       height="627.86754"
       id="rect121987" />
    <marker
       style="overflow:visible"
       id="marker117594"
       refX="0.0"
       refY="0.0"
       orient="auto"
       inkscape:stockid="Arrow1Lstart"
       inkscape:isstock="true">
      <path
         transform="scale(0.8) translate(12.5,0)"
         style="fill-rule:evenodd;fill:context-stroke;stroke:context-stroke;stroke-width:1.0pt"
         d="M 0.0,0.0 L 5.0,-5.0 L -12.5,0.0 L 5.0,5.0 L 0.0,0.0 z "
         id="path117592" />
    </marker>
    <marker
       style="overflow:visible"
       id="Arrow1Lstart"
       refX="0.0"
       refY="0.0"
       orient="auto"
       inkscape:stockid="Arrow1Lstart"
       inkscape:isstock="true">
      <path
         transform="scale(0.8) translate(12.5,0)"
         style="fill-rule:evenodd;fill:context-stroke;stroke:context-stroke;stroke-width:1.0pt"
         d="M 0.0,0.0 L 5.0,-5.0 L -12.5,0.0 L 5.0,5.0 L 0.0,0.0 z "
         id="path117278" />
    </marker>
    <marker
       style="overflow:visible;"
       id="Arrow2Lend"
       refX="0.0"
       refY="0.0"
       orient="auto"
       inkscape:stockid="Arrow2Lend"
       inkscape:isstock="true">
      <path
         transform="scale(1.1) rotate(180) translate(1,0)"
         d="M 8.7185878,4.0337352 L -2.2072895,0.016013256 L 8.7185884,-4.0017078 C 6.9730900,-1.6296469 6.9831476,1.6157441 8.7185878,4.0337352 z "
         style="stroke:context-stroke;fill-rule:evenodd;fill:context-stroke;stroke-width:0.62500000;stroke-linejoin:round;"
         id="path117299" />
    </marker>
    <marker
       inkscape:stockid="DistanceStart"
       orient="auto"
       refY="0.0"
       refX="0.0"
       id="DistanceStart"
       style="overflow:visible"
       inkscape:isstock="true">
      <g
         id="g2300">
        <path
           id="path2306"
           d="M 0,0 L 2,0"
           style="fill:none;stroke:context-fill;stroke-width:1.15;stroke-linecap:square" />
        <path
           id="path2302"
           d="M 0,0 L 13,4 L 9,0 13,-4 L 0,0 z "
           style="fill:context-stroke;fill-rule:evenodd;stroke:none" />
        <path
           id="path2304"
           d="M 0,-4 L 0,40"
           style="fill:none;stroke:context-stroke;stroke-width:1;stroke-linecap:square" />
      </g>
    </marker>
    <rect
       x="1016.9838"
       y="144.50125"
       width="289.38806"
       height="104.79611"
       id="rect29133" />
    <rect
       x="0.49131545"
       y="0.49131545"
       width="1365.0174"
       height="19.017371"
       id="rect11449" />
    <inkscape:perspective
       sodipodi:type="inkscape:persp3d"
       inkscape:vp_x="0 : 320 : 1"
       inkscape:vp_y="0 : 1000 : 0"
       inkscape:vp_z="480 : 320 : 1"
       inkscape:persp3d-origin="240 : 213.33333 : 1"
       id="perspective67" />
    <inkscape:perspective
       id="perspective6786"
       inkscape:persp3d-origin="0.5 : 0.33333333 : 1"
       inkscape:vp_z="1 : 0.5 : 1"
       inkscape:vp_y="0 : 1000 : 0"
       inkscape:vp_x="0 : 0.5 : 1"
       sodipodi:type="inkscape:persp3d" />
    <inkscape:perspective
       id="perspective2968"
       inkscape:persp3d-origin="0.5 : 0.33333333 : 1"
       inkscape:vp_z="1 : 0.5 : 1"
       inkscape:vp_y="0 : 1000 : 0"
       inkscape:vp_x="0 : 0.5 : 1"
       sodipodi:type="inkscape:persp3d" />
    <inkscape:perspective
       id="perspective2996"
       inkscape:persp3d-origin="0.5 : 0.33333333 : 1"
       inkscape:vp_z="1 : 0.5 : 1"
       inkscape:vp_y="0 : 1000 : 0"
       inkscape:vp_x="0 : 0.5 : 1"
       sodipodi:type="inkscape:persp3d" />
    <inkscape:perspective
       id="perspective3800"
       inkscape:persp3d-origin="0.5 : 0.33333333 : 1"
       inkscape:vp_z="1 : 0.5 : 1"
       inkscape:vp_y="0 : 1000 : 0"
       inkscape:vp_x="0 : 0.5 : 1"
       sodipodi:type="inkscape:persp3d" />
    <inkscape:perspective
       id="perspective3822"
       inkscape:persp3d-origin="0.5 : 0.33333333 : 1"
       inkscape:vp_z="1 : 0.5 : 1"
       inkscape:vp_y="0 : 1000 : 0"
       inkscape:vp_x="0 : 0.5 : 1"
       sodipodi:type="inkscape:persp3d" />
    <inkscape:perspective
       id="perspective3844"
       inkscape:persp3d-origin="0.5 : 0.33333333 : 1"
       inkscape:vp_z="1 : 0.5 : 1"
       inkscape:vp_y="0 : 1000 : 0"
       inkscape:vp_x="0 : 0.5 : 1"
       sodipodi:type="inkscape:persp3d" />
    <inkscape:perspective
       id="perspective3866"
       inkscape:persp3d-origin="0.5 : 0.33333333 : 1"
       inkscape:vp_z="1 : 0.5 : 1"
       inkscape:vp_y="0 : 1000 : 0"
       inkscape:vp_x="0 : 0.5 : 1"
       sodipodi:type="inkscape:persp3d" />
    <inkscape:perspective
       id="perspective3888"
       inkscape:persp3d-origin="0.5 : 0.33333333 : 1"
       inkscape:vp_z="1 : 0.5 : 1"
       inkscape:vp_y="0 : 1000 : 0"
       inkscape:vp_x="0 : 0.5 : 1"
       sodipodi:type="inkscape:persp3d" />
    <inkscape:perspective
       id="perspective6805"
       inkscape:persp3d-origin="0.5 : 0.33333333 : 1"
       inkscape:vp_z="1 : 0.5 : 1"
       inkscape:vp_y="0 : 1000 : 0"
       inkscape:vp_x="0 : 0.5 : 1"
       sodipodi:type="inkscape:persp3d" />
  </defs>
  <g
     inkscape:label="Layer 1"
     inkscape:groupmode="layer"
     id="layer1">
    <rect
       style="opacity:1;fill:#1a1b26;fill-opacity:1;stroke:none;stroke-width:32.1408;stroke-miterlimit:4;stroke-dasharray:96.4225, 96.4225;stroke-dashoffset:0;stroke-opacity:1"
       id="rect112783"
       width="1366"
       height="1557.234"
       x="0"
       y="0" />
    <g
       id="layer1-3"
       inkscape:label="Layer 1"
       transform="translate(443.00001,-180.00379)"
       style="fill:#a7b1d6;fill-opacity:1">
      <g
         transform="matrix(0.7827199,0,0,0.58599744,386.83815,205.76936)"
         style="font-style:normal;font-weight:normal;font-size:386.808px;line-height:125%;font-family:'Seabird Light SF';-inkscape-font-specification:'Seabird Light SF';fill:#a7b1d6;fill-opacity:1;stroke:none"
         id="text3851">
        <path
           d="m -299.6483,517.89498 c -17.01959,0 -28.49488,-3.09447 -34.42591,-9.2834 -5.6732,-6.44678 -8.50979,-18.82463 -8.50978,-37.13357 l 0.38681,-222.41462 c -10e-6,-13.1512 3.09445,-22.82139 9.28339,-29.01061 6.1889,-6.18862 16.37484,-9.28308 30.55784,-9.28339 3.09441,3.1e-4 5.54419,3.1e-4 7.34935,0 2.06292,3.1e-4 9.02545,1.03179 20.88764,3.09446 11.86202,1.80541 17.79307,13.2807 17.79317,34.42592 v 51.05866 h -28.6238 v -63.82332 h -29.0106 v 258.00096 h 29.0106 V 363.94538 h -14.3119 v -23.20849 h 42.9357 V 480.3746 c -1e-4,13.92511 -3.2235,23.72424 -9.67021,29.39741 -6.18901,5.41531 -17.40643,8.12297 -33.6523,8.12297"
           style="font-variant:normal;font-stretch:normal;line-height:125%;font-family:'Skyscraper SF';-inkscape-font-specification:'Skyscraper SF';text-align:start;writing-mode:lr-tb;text-anchor:start;fill:#a7b1d6;fill-opacity:1"
           id="path3856" />
        <path
           d="m -205.92591,515.96094 h -28.6238 V 249.06339 c -1e-5,-13.1512 3.09445,-22.82139 9.28339,-29.01061 6.18891,-6.18862 16.50378,-9.28308 30.94465,-9.28339 3.61015,3.1e-4 7.34929,3.1e-4 11.21743,0 3.61014,0.77392 10.31481,1.93434 20.11402,3.48127 9.79904,1.54754 14.69861,12.89389 14.6987,34.03911 v 267.67117 h -28.62379 V 235.52511 h -29.0106 v 280.43583"
           style="font-variant:normal;font-stretch:normal;line-height:125%;font-family:'Skyscraper SF';-inkscape-font-specification:'Skyscraper SF';text-align:start;writing-mode:lr-tb;text-anchor:start;fill:#a7b1d6;fill-opacity:1"
           id="path3858" />
        <path
           d="m -99.438868,516.73455 c -18.308932,-2.32084 -27.463382,-14.18294 -27.463372,-35.58634 l 0.38681,-268.05797 h 28.623794 v 280.43583 h 28.623795 V 213.09024 h 28.623796 V 480.3746 c -9.7e-5,12.63575 -3.094559,22.17701 -9.283393,28.62379 -6.189011,6.4468 -15.988138,9.6702 -29.397412,9.6702 -3.352391,0 -6.188981,-0.12893 -8.509777,-0.3868 -2.320895,-0.25788 -6.188972,-0.77362 -11.604241,-1.54724"
           style="font-variant:normal;font-stretch:normal;line-height:125%;font-family:'Skyscraper SF';-inkscape-font-specification:'Skyscraper SF';text-align:start;writing-mode:lr-tb;text-anchor:start;fill:#a7b1d6;fill-opacity:1"
           id="path3860" />
      </g>
      <g
         transform="scale(1.0767564,0.92871515)"
         style="color:#000000;font-style:normal;font-variant:normal;font-weight:normal;font-stretch:normal;font-size:57.9019px;line-height:125%;font-family:'Skyscraper SF';-inkscape-font-specification:'Skyscraper SF';text-indent:0;text-align:start;text-decoration:none;text-decoration-line:none;letter-spacing:normal;word-spacing:normal;text-transform:none;writing-mode:lr-tb;direction:ltr;text-anchor:start;display:inline;overflow:visible;visibility:visible;fill:#a7b1d6;fill-opacity:1;fill-rule:nonzero;stroke:none;marker:none;enable-background:accumulate"
         id="text2954">
        <path
           d="m 115.1817,608.31879 h -4.05313 v -31.55656 h 4.05313 v 1.56335 c 0.1158,-0.19298 0.27021,-0.36668 0.46322,-0.52112 0.193,-0.15437 0.38601,-0.28948 0.57902,-0.40531 0.2316,-0.15438 0.52111,-0.30878 0.86853,-0.46322 0.386,-0.19297 0.81062,-0.32808 1.27384,-0.40531 0.46321,-0.0772 0.90712,-0.11577 1.33175,-0.1158 2.31606,3e-5 3.4741,1.31247 3.47411,3.93733 v 5.32698 h -4.05313 v -5.55859 h -3.93734 v 28.19825"
           style="fill:#a7b1d6;fill-opacity:1;marker:none"
           id="path5256" />
        <path
           d="m 130.52029,608.49249 c -0.54042,0.11581 -1.02294,0.17371 -1.44755,0.17371 -2.27748,0 -3.41621,-1.31244 -3.41621,-3.93733 v -27.96664 h 4.05313 v 28.19824 h 3.93734 v -28.19824 h 4.05313 v 31.55656 H 133.647 v -1.50545 l -0.92644,0.81062 c -0.69483,0.46322 -1.42825,0.75273 -2.20027,0.86853"
           style="fill:#a7b1d6;fill-opacity:1;marker:none"
           id="path5258" />
        <path
           d="m 145.26357,608.31879 h -4.05313 v -31.55656 h 4.05313 v 1.56335 c 0.1158,-0.19298 0.2702,-0.36668 0.46322,-0.52112 0.193,-0.15437 0.386,-0.28948 0.57902,-0.40531 0.2316,-0.15438 0.52111,-0.30878 0.86853,-0.46322 0.386,-0.19297 0.81061,-0.32808 1.27384,-0.40531 0.4632,-0.0772 0.90712,-0.11577 1.33174,-0.1158 2.31607,3e-5 3.47411,1.31247 3.47412,3.93733 v 27.96664 h -4.05314 v -28.19825 h -3.93733 v 28.19825"
           style="fill:#a7b1d6;fill-opacity:1;marker:none"
           id="path5260" />
        <path
           d="m 167.84624,580.29425 h -3.41622 v -3.53202 h 3.41622 v -7.93257 c -1e-5,-2.39324 0.42461,-4.01449 1.27384,-4.86376 0.84922,-0.84919 2.43187,-1.2738 4.74796,-1.27384 2.20026,4e-5 3.70571,0.42465 4.51635,1.27384 0.81061,0.84927 1.21593,2.47052 1.21594,4.86376 v 4.45845 h -3.76363 v -6.94823 h -3.99523 v 10.42235 h 3.99523 v 3.53202 h -3.99523 v 28.02454 h -3.99523 v -28.02454"
           style="fill:#a7b1d6;fill-opacity:1;marker:none"
           id="path5262" />
        <path
           d="m 182.357,608.31879 h -4.05313 v -31.55656 h 4.05313 v 1.56335 c 0.1158,-0.19298 0.27021,-0.36668 0.46322,-0.52112 0.193,-0.15437 0.38601,-0.28948 0.57902,-0.40531 0.2316,-0.15438 0.52111,-0.30878 0.86853,-0.46322 0.386,-0.19297 0.81062,-0.32808 1.27384,-0.40531 0.46321,-0.0772 0.90712,-0.11577 1.33175,-0.1158 2.31606,3e-5 3.4741,1.31247 3.47411,3.93733 v 5.32698 h -4.05313 v -5.55859 H 182.357 v 28.19825"
           style="fill:#a7b1d6;fill-opacity:1;marker:none"
           id="path5264" />
        <path
           d="m 198.91153,608.6083 c -2.27748,0 -3.86013,-0.38602 -4.74795,-1.15804 -0.88784,-0.77203 -1.33175,-2.14237 -1.33175,-4.11104 v -21.71323 c 0,-2.97227 0.84923,-4.59352 2.54769,-4.86376 1.69845,-0.27018 3.01089,-0.40528 3.93733,-0.40532 1.96865,4e-5 3.3776,0.44395 4.22684,1.33175 0.88782,0.84926 1.33173,2.2003 1.33175,4.05313 v 11.46459 h -7.99047 v 11.75409 h 3.93733 v -7.29564 h 4.05314 v 5.79019 c -2e-5,1.85287 -0.46323,3.18461 -1.38965,3.99524 -0.88784,0.77202 -2.41259,1.15804 -4.57426,1.15804 m -2.02656,-18.93394 h 3.93733 v -9.55382 h -3.93733 v 9.55382"
           style="fill:#a7b1d6;fill-opacity:1;marker:none"
           id="path5266" />
        <path
           d="m 214.06556,608.6083 c -2.27748,0 -3.86014,-0.38602 -4.74796,-1.15804 -0.88783,-0.77203 -1.33175,-2.14237 -1.33175,-4.11104 v -21.71323 c 0,-2.97227 0.84923,-4.59352 2.54769,-4.86376 1.69845,-0.27018 3.01089,-0.40528 3.93733,-0.40532 1.96866,4e-5 3.3776,0.44395 4.22684,1.33175 0.88782,0.84926 1.33173,2.2003 1.33175,4.05313 v 11.46459 h -7.99047 v 11.75409 h 3.93733 v -7.29564 h 4.05314 v 5.79019 c -2e-5,1.85287 -0.46323,3.18461 -1.38965,3.99524 -0.88784,0.77202 -2.41259,1.15804 -4.57425,1.15804 m -2.02657,-18.93394 h 3.93733 v -9.55382 h -3.93733 v 9.55382"
           style="fill:#a7b1d6;fill-opacity:1;marker:none"
           id="path5268" />
      </g>
      <g
         transform="scale(1.0767564,0.92871515)"
         style="color:#000000;font-style:normal;font-variant:normal;font-weight:normal;font-stretch:normal;font-size:57.9019px;line-height:125%;font-family:'Skyscraper SF';-inkscape-font-specification:'Skyscraper SF';text-indent:0;text-align:start;text-decoration:none;text-decoration-line:none;letter-spacing:normal;word-spacing:normal;text-transform:none;writing-mode:lr-tb;direction:ltr;text-anchor:start;display:inline;overflow:visible;visibility:visible;fill:#a7b1d6;fill-opacity:1;fill-rule:nonzero;stroke:none;marker:none;enable-background:accumulate"
         id="text2954-6">
        <path
           d="m 245.16684,608.31879 h -4.05313 v -31.55656 h 4.05313 v 1.56335 c 0.1158,-0.19298 0.27021,-0.36668 0.46322,-0.52112 0.193,-0.15437 0.386,-0.28948 0.57902,-0.40531 0.2316,-0.15438 0.52111,-0.30878 0.86853,-0.46322 0.386,-0.19297 0.81062,-0.32808 1.27384,-0.40531 0.46321,-0.0772 0.90712,-0.11577 1.33174,-0.1158 2.31607,3e-5 3.47411,1.31247 3.47412,3.93733 v 5.32698 h -4.05314 v -5.55859 h -3.93733 v 28.19825"
           style="fill:#a7b1d6;fill-opacity:1;marker:none"
           id="path5243" />
        <path
           d="m 260.50543,608.49249 c -0.54043,0.11581 -1.02294,0.17371 -1.44755,0.17371 -2.27748,0 -3.41622,-1.31244 -3.41621,-3.93733 v -27.96664 h 4.05313 v 28.19824 h 3.93733 v -28.19824 h 4.05314 v 31.55656 h -4.05314 v -1.50545 l -0.92643,0.81062 c -0.69483,0.46322 -1.42825,0.75273 -2.20027,0.86853"
           style="fill:#a7b1d6;fill-opacity:1;marker:none"
           id="path5245" />
        <path
           d="m 275.24871,608.31879 h -4.05314 v -31.55656 h 4.05314 v 1.56335 c 0.1158,-0.19298 0.2702,-0.36668 0.46322,-0.52112 0.193,-0.15437 0.386,-0.28948 0.57901,-0.40531 0.23161,-0.15438 0.52111,-0.30878 0.86853,-0.46322 0.38601,-0.19297 0.81062,-0.32808 1.27385,-0.40531 0.4632,-0.0772 0.90712,-0.11577 1.33174,-0.1158 2.31607,3e-5 3.4741,1.31247 3.47412,3.93733 v 27.96664 h -4.05314 v -28.19825 h -3.93733 v 28.19825"
           style="fill:#a7b1d6;fill-opacity:1;marker:none"
           id="path5247" />
        <path
           d="m 301.6529,608.6083 c -2.54769,0 -4.26544,-0.46322 -5.15327,-1.38965 -0.84923,-0.96503 -1.27384,-2.81789 -1.27384,-5.55859 l 0.0579,-33.29361 c 0,-1.96863 0.46321,-3.41618 1.38965,-4.34265 0.92642,-0.92639 2.45117,-1.3896 4.57425,-1.38965 0.46321,5e-5 0.82992,5e-5 1.10014,0 0.3088,5e-5 1.35103,0.15445 3.1267,0.46322 1.77565,0.27025 2.66348,1.98801 2.66349,5.15327 v 7.64306 h -4.28474 v -9.55382 h -4.34265 v 38.62059 h 4.34265 v -19.39715 h -2.14238 v -3.47411 h 6.42712 v 20.9026 c -1e-5,2.08447 -0.48253,3.55132 -1.44755,4.40055 -0.92644,0.81062 -2.6056,1.21594 -5.03747,1.21594"
           style="fill:#a7b1d6;fill-opacity:1;marker:none"
           id="path5249" />
        <path
           d="m 315.68236,608.31879 h -4.28474 v -39.95234 c -1e-5,-1.96863 0.46321,-3.41618 1.38964,-4.34265 0.92643,-0.92639 2.47048,-1.3896 4.63216,-1.38965 0.54041,5e-5 1.10013,5e-5 1.67915,0 0.54041,0.11585 1.54405,0.28956 3.01091,0.52112 1.46683,0.23165 2.20026,1.93011 2.20027,5.09537 v 40.06815 h -4.28474 v -41.97891 h -4.34265 v 41.97891"
           style="fill:#a7b1d6;fill-opacity:1;marker:none"
           id="path5251" />
        <path
           d="m 331.62258,608.43459 c -2.74069,-0.34741 -4.11104,-2.12307 -4.11104,-5.32698 l 0.0579,-40.12604 h 4.28474 v 41.9789 h 4.28474 v -41.9789 h 4.28475 v 40.01024 c -2e-5,1.89146 -0.46323,3.31971 -1.38965,4.28474 -0.92644,0.96503 -2.39329,1.44755 -4.40055,1.44755 -0.50182,0 -0.92644,-0.0193 -1.27384,-0.0579 -0.34742,-0.0386 -0.92644,-0.11581 -1.73706,-0.23161"
           style="fill:#a7b1d6;fill-opacity:1;marker:none"
           id="path5253" />
      </g>
      <g
         id="g3911"
         transform="matrix(1.289845,0,0,1.289845,-301.09455,-65.005826)"
         style="fill:#a7b1d6;fill-opacity:1">
        <path
           transform="translate(-5.7220459e-6,160.64541)"
           style="color:#000000;display:inline;overflow:visible;visibility:visible;fill:#a7b1d6;fill-opacity:1;fill-rule:nonzero;stroke:none;stroke-width:1px;marker:none;enable-background:accumulate"
           d="m 371.74468,347.04965 c 0,2.13864 -1.66146,3.87234 -3.71099,3.87234 -2.04952,0 -3.71099,-1.7337 -3.71099,-3.87234 0,-2.13863 1.66147,-3.87234 3.71099,-3.87234 2.04953,0 3.71099,1.73371 3.71099,3.87234 z"
           id="path3790" />
        <path
           transform="matrix(1.2582418,0,0,1.2582418,-84.335059,71.022681)"
           style="color:#000000;display:inline;overflow:visible;visibility:visible;fill:#a7b1d6;fill-opacity:1;fill-rule:nonzero;stroke:none;stroke-width:1px;marker:none;enable-background:accumulate"
           d="m 371.74468,347.04965 c 0,2.13864 -1.66146,3.87234 -3.71099,3.87234 -2.04952,0 -3.71099,-1.7337 -3.71099,-3.87234 0,-2.13863 1.66147,-3.87234 3.71099,-3.87234 2.04953,0 3.71099,1.73371 3.71099,3.87234 z"
           id="path3790-1" />
        <path
           transform="matrix(1.5164836,0,0,1.5164836,-166.75346,-18.600046)"
           style="color:#000000;display:inline;overflow:visible;visibility:visible;fill:#a7b1d6;fill-opacity:1;fill-rule:nonzero;stroke:none;stroke-width:1px;marker:none;enable-background:accumulate"
           d="m 371.74468,347.04965 c 0,2.13864 -1.66146,3.87234 -3.71099,3.87234 -2.04952,0 -3.71099,-1.7337 -3.71099,-3.87234 0,-2.13863 1.66147,-3.87234 3.71099,-3.87234 2.04953,0 3.71099,1.73371 3.71099,3.87234 z"
           id="path3790-1-8" />
        <path
           transform="matrix(1.7747254,0,0,1.7747254,-247.25521,-108.22277)"
           style="color:#000000;display:inline;overflow:visible;visibility:visible;fill:#a7b1d6;fill-opacity:1;fill-rule:nonzero;stroke:none;stroke-width:1px;marker:none;enable-background:accumulate"
           d="m 371.74468,347.04965 c 0,2.13864 -1.66146,3.87234 -3.71099,3.87234 -2.04952,0 -3.71099,-1.7337 -3.71099,-3.87234 0,-2.13863 1.66147,-3.87234 3.71099,-3.87234 2.04953,0 3.71099,1.73371 3.71099,3.87234 z"
           id="path3790-1-8-7" />
        <path
           transform="matrix(2.0329672,0,0,2.0329672,-325.84027,-197.8455)"
           style="color:#000000;display:inline;overflow:visible;visibility:visible;fill:#a7b1d6;fill-opacity:1;fill-rule:nonzero;stroke:none;stroke-width:1px;marker:none;enable-background:accumulate"
           d="m 371.74468,347.04965 c 0,2.13864 -1.66146,3.87234 -3.71099,3.87234 -2.04952,0 -3.71099,-1.7337 -3.71099,-3.87234 0,-2.13863 1.66147,-3.87234 3.71099,-3.87234 2.04953,0 3.71099,1.73371 3.71099,3.87234 z"
           id="path3790-1-8-7-9" />
        <path
           transform="matrix(-1,0,0,1,844.72031,160.64541)"
           style="color:#000000;display:inline;overflow:visible;visibility:visible;fill:#a7b1d6;fill-opacity:1;fill-rule:nonzero;stroke:none;stroke-width:1px;marker:none;enable-background:accumulate"
           d="m 371.74468,347.04965 c 0,2.13864 -1.66146,3.87234 -3.71099,3.87234 -2.04952,0 -3.71099,-1.7337 -3.71099,-3.87234 0,-2.13863 1.66147,-3.87234 3.71099,-3.87234 2.04953,0 3.71099,1.73371 3.71099,3.87234 z"
           id="path3790-2" />
        <path
           transform="matrix(-1.2582418,0,0,1.2582418,929.05537,71.022681)"
           style="color:#000000;display:inline;overflow:visible;visibility:visible;fill:#a7b1d6;fill-opacity:1;fill-rule:nonzero;stroke:none;stroke-width:1px;marker:none;enable-background:accumulate"
           d="m 371.74468,347.04965 c 0,2.13864 -1.66146,3.87234 -3.71099,3.87234 -2.04952,0 -3.71099,-1.7337 -3.71099,-3.87234 0,-2.13863 1.66147,-3.87234 3.71099,-3.87234 2.04953,0 3.71099,1.73371 3.71099,3.87234 z"
           id="path3790-1-0" />
        <path
           transform="matrix(-1.5164836,0,0,1.5164836,1011.4738,-18.600046)"
           style="color:#000000;display:inline;overflow:visible;visibility:visible;fill:#a7b1d6;fill-opacity:1;fill-rule:nonzero;stroke:none;stroke-width:1px;marker:none;enable-background:accumulate"
           d="m 371.74468,347.04965 c 0,2.13864 -1.66146,3.87234 -3.71099,3.87234 -2.04952,0 -3.71099,-1.7337 -3.71099,-3.87234 0,-2.13863 1.66147,-3.87234 3.71099,-3.87234 2.04953,0 3.71099,1.73371 3.71099,3.87234 z"
           id="path3790-1-8-2" />
        <path
           transform="matrix(-1.7747254,0,0,1.7747254,1091.9755,-108.22277)"
           style="color:#000000;display:inline;overflow:visible;visibility:visible;fill:#a7b1d6;fill-opacity:1;fill-rule:nonzero;stroke:none;stroke-width:1px;marker:none;enable-background:accumulate"
           d="m 371.74468,347.04965 c 0,2.13864 -1.66146,3.87234 -3.71099,3.87234 -2.04952,0 -3.71099,-1.7337 -3.71099,-3.87234 0,-2.13863 1.66147,-3.87234 3.71099,-3.87234 2.04953,0 3.71099,1.73371 3.71099,3.87234 z"
           id="path3790-1-8-7-3" />
      </g>
      <path
         style="color:#000000;display:inline;overflow:visible;visibility:visible;fill:#a7b1d6;fill-opacity:1;fill-rule:nonzero;stroke:none;stroke-width:29.3;marker:none;enable-background:accumulate"
         d="M 247.33534,308.10948 C 280.75715,228.01483 550.11131,524.11759 433.33963,200.00379 484.04666,463.82914 274.55017,155.81472 247.33534,308.10948 Z"
         id="path3862-8"
         sodipodi:nodetypes="ccc" />
      <path
         style="color:#000000;display:inline;overflow:visible;visibility:visible;fill:#a7b1d6;fill-opacity:1;fill-rule:nonzero;stroke:none;stroke-width:29.3;marker:none;enable-background:accumulate"
         d="M 232.66467,308.10948 C 199.24285,228.01483 -70.111339,524.11759 46.660367,200.00379 -4.0466646,463.82914 205.44983,155.81472 232.66467,308.10948 Z"
         id="path3862-8-9"
         sodipodi:nodetypes="ccc" />
    </g>
    <rect
       style="opacity:1;fill:#cccccc;stroke:#000000;stroke-width:0.982629;stroke-miterlimit:4;stroke-dasharray:none;stroke-dashoffset:0"
       id="rect1107"
       width="1365.0173"
       height="19.01737"
       x="0.49131545"
       y="0.49131545" />
    <text
       xml:space="preserve"
       id="text11447"
       style="font-size:10.6667px;line-height:1.25;font-family:sans-serif;white-space:pre;shape-inside:url(#rect11449)"
       transform="translate(649.5155,3.6124196)"><tspan
         x="0.4921875"
         y="10.197489"
         id="tspan134836">LINE HEIGHT</tspan></text>
    <text
       xml:space="preserve"
       id="text29131"
       style="font-size:16px;line-height:1.25;font-family:sans-serif;white-space:pre;shape-inside:url(#rect29133)"
       transform="translate(139.51563,-144.44658)"><tspan
         x="1016.9844"
         y="159.05986"
         id="tspan134840"><tspan
           style="font-family:'agave Nerd Font Mono';-inkscape-font-specification:'agave Nerd Font Mono'"
           id="tspan134838">0.999.0@27.2 (spacemacs)</tspan></tspan></text>
    <text
       xml:space="preserve"
       style="font-size:10.6667px;line-height:1.25;font-family:sans-serif;fill:#a7b1d6;fill-opacity:1"
       x="0"
       y="429.59048"
       id="text67685"><tspan
         sodipodi:role="line"
         id="tspan67683"
         x="0"
         y="429.59048" /><tspan
         sodipodi:role="line"
         x="0"
         y="447.21857"
         id="tspan67687"
         style="font-style:normal;font-variant:normal;font-weight:normal;font-stretch:normal;font-size:16px;font-family:'agave Nerd Font Mono';-inkscape-font-specification:'agave Nerd Font Mono';fill:#a7b1d6;fill-opacity:1">                                                    [?] [Homepage] [Documentation] [Gitter Chat] [Licensing]</tspan><tspan
         sodipodi:role="line"
         x="0"
         y="467.21857"
         id="tspan67689"
         style="font-style:normal;font-variant:normal;font-weight:normal;font-stretch:normal;font-size:16px;font-family:'agave Nerd Font Mono';-inkscape-font-specification:'agave Nerd Font Mono';fill:#a7b1d6;fill-opacity:1">                                                           [Update Packages] [Rollback Package Update]</tspan><tspan
         sodipodi:role="line"
         x="0"
         y="487.21857"
         id="tspan67691"
         style="font-style:normal;font-variant:normal;font-weight:normal;font-stretch:normal;font-size:16px;font-family:'agave Nerd Font Mono';-inkscape-font-specification:'agave Nerd Font Mono';fill:#a7b1d6;fill-opacity:1">                                                              [Release Notes] [Search in Spacemacs]</tspan><tspan
         sodipodi:role="line"
         x="0"
         y="507.21857"
         id="tspan67695"
         style="font-style:normal;font-variant:normal;font-weight:normal;font-stretch:normal;font-size:16px;font-family:'agave Nerd Font Mono';-inkscape-font-specification:'agave Nerd Font Mono';fill:#a7b1d6;fill-opacity:1" /><tspan
         sodipodi:role="line"
         x="0"
         y="527.21857"
         id="tspan67697"
         style="font-style:normal;font-variant:normal;font-weight:normal;font-stretch:normal;font-size:16px;font-family:'agave Nerd Font Mono';-inkscape-font-specification:'agave Nerd Font Mono';fill:#a7b1d6;fill-opacity:1">---------------------------------------------------------------------------------------------------------------------------------------------------------------------------</tspan><tspan
         sodipodi:role="line"
         x="0"
         y="547.21857"
         style="font-style:normal;font-variant:normal;font-weight:normal;font-stretch:normal;font-size:16px;font-family:'agave Nerd Font Mono';-inkscape-font-specification:'agave Nerd Font Mono';fill:#a7b1d6;fill-opacity:1"
         id="tspan101799" /><tspan
         sodipodi:role="line"
         x="0"
         y="567.21857"
         id="tspan67699"
         style="font-style:normal;font-variant:normal;font-weight:normal;font-stretch:normal;font-size:16px;font-family:'agave Nerd Font Mono';-inkscape-font-specification:'agave Nerd Font Mono';fill:#a7b1d6;fill-opacity:1">                            Recent Files: (r)</tspan><tspan
         sodipodi:role="line"
         x="0"
         y="587.21857"
         id="tspan67701"
         style="font-style:normal;font-variant:normal;font-weight:normal;font-stretch:normal;font-size:16px;font-family:'agave Nerd Font Mono';-inkscape-font-specification:'agave Nerd Font Mono';fill:#a7b1d6;fill-opacity:1">                                1   ~/Downloads/colors.jsonl</tspan><tspan
         sodipodi:role="line"
         x="0"
         y="607.21857"
         id="tspan67703"
         style="font-style:normal;font-variant:normal;font-weight:normal;font-stretch:normal;font-size:16px;font-family:'agave Nerd Font Mono';-inkscape-font-specification:'agave Nerd Font Mono';fill:#a7b1d6;fill-opacity:1">                                2   ~/.spacemacs</tspan><tspan
         sodipodi:role="line"
         x="0"
         y="628.01544"
         id="tspan67705"
         style="font-style:normal;font-variant:normal;font-weight:normal;font-stretch:normal;font-size:16px;font-family:'agave Nerd Font Mono';-inkscape-font-specification:'agave Nerd Font Mono';fill:#a7b1d6;fill-opacity:1">                                3   ~/code/ddw.el</tspan><tspan
         sodipodi:role="line"
         x="0"
         y="648.81232"
         id="tspan67707"
         style="font-style:normal;font-variant:normal;font-weight:normal;font-stretch:normal;font-size:16px;font-family:'agave Nerd Font Mono';-inkscape-font-specification:'agave Nerd Font Mono';fill:#a7b1d6;fill-opacity:1">                                4   ~/.spacemacs.d/elpa/jsonl-20190623.509/jsonl.el</tspan><tspan
         sodipodi:role="line"
         x="0"
         y="669.60919"
         id="tspan67709"
         style="font-style:normal;font-variant:normal;font-weight:normal;font-stretch:normal;font-size:16px;font-family:'agave Nerd Font Mono';-inkscape-font-specification:'agave Nerd Font Mono';fill:#a7b1d6;fill-opacity:1">                                5   ~/.spacemacs.d/elpa/jsonl-20190623.509/jsonl-autoloads.el</tspan><tspan
         sodipodi:role="line"
         x="0"
         y="689.60919"
         id="tspan67711"
         style="font-style:normal;font-variant:normal;font-weight:normal;font-stretch:normal;font-size:16px;font-family:'agave Nerd Font Mono';-inkscape-font-specification:'agave Nerd Font Mono';fill:#a7b1d6;fill-opacity:1">                                6   /usr/share/emacs/27.2/lisp/play/zone.el.gz</tspan><tspan
         sodipodi:role="line"
         x="0"
         y="709.60919"
         id="tspan67713"
         style="font-style:normal;font-variant:normal;font-weight:normal;font-stretch:normal;font-size:16px;font-family:'agave Nerd Font Mono';-inkscape-font-specification:'agave Nerd Font Mono';fill:#a7b1d6;fill-opacity:1">                                7   ~/code/APCD10Cr_Carson_2022/README.md</tspan><tspan
         sodipodi:role="line"
         x="0"
         y="730.40607"
         id="tspan67715"
         style="font-style:normal;font-variant:normal;font-weight:normal;font-stretch:normal;font-size:16px;font-family:'agave Nerd Font Mono';-inkscape-font-specification:'agave Nerd Font Mono';fill:#a7b1d6;fill-opacity:1">                                8   ~/.spacemacs.d/core/core-dumper.el</tspan><tspan
         sodipodi:role="line"
         x="0"
         y="751.20294"
         id="tspan67717"
         style="font-style:normal;font-variant:normal;font-weight:normal;font-stretch:normal;font-size:16px;font-family:'agave Nerd Font Mono';-inkscape-font-specification:'agave Nerd Font Mono';fill:#a7b1d6;fill-opacity:1">                                9   ~/code/rl/engine.py</tspan><tspan
         sodipodi:role="line"
         x="0"
         y="771.20294"
         id="tspan67719"
         style="font-style:normal;font-variant:normal;font-weight:normal;font-stretch:normal;font-size:16px;font-family:'agave Nerd Font Mono';-inkscape-font-specification:'agave Nerd Font Mono';fill:#a7b1d6;fill-opacity:1">                               10   ~/code/APCD10Cr_Carson_2022/APCD10Cr_model_20211222.slim</tspan><tspan
         sodipodi:role="line"
         x="0"
         y="791.20294"
         id="tspan67721"
         style="font-style:normal;font-variant:normal;font-weight:normal;font-stretch:normal;font-size:16px;font-family:'agave Nerd Font Mono';-inkscape-font-specification:'agave Nerd Font Mono';fill:#a7b1d6;fill-opacity:1">                           </tspan><tspan
         sodipodi:role="line"
         x="0"
         y="811.20294"
         id="tspan67723"
         style="font-style:normal;font-variant:normal;font-weight:normal;font-stretch:normal;font-size:16px;font-family:'agave Nerd Font Mono';-inkscape-font-specification:'agave Nerd Font Mono';fill:#a7b1d6;fill-opacity:1">                            Recent Files by Project: (R)</tspan><tspan
         sodipodi:role="line"
         x="0"
         y="831.20294"
         id="tspan67725"
         style="font-style:normal;font-variant:normal;font-weight:normal;font-stretch:normal;font-size:16px;font-family:'agave Nerd Font Mono';-inkscape-font-specification:'agave Nerd Font Mono';fill:#a7b1d6;fill-opacity:1">                               11   ~/.spacemacs.d/</tspan><tspan
         sodipodi:role="line"
         x="0"
         y="851.99982"
         id="tspan67727"
         style="font-style:normal;font-variant:normal;font-weight:normal;font-stretch:normal;font-size:16px;font-family:'agave Nerd Font Mono';-inkscape-font-specification:'agave Nerd Font Mono';fill:#a7b1d6;fill-opacity:1">                                   12   elpa/jsonl-20190623.509/jsonl.el</tspan><tspan
         sodipodi:role="line"
         x="0"
         y="872.79669"
         id="tspan67729"
         style="font-style:normal;font-variant:normal;font-weight:normal;font-stretch:normal;font-size:16px;font-family:'agave Nerd Font Mono';-inkscape-font-specification:'agave Nerd Font Mono';fill:#a7b1d6;fill-opacity:1">                                   13   elpa/jsonl-20190623.509/jsonl-autoloads.el</tspan><tspan
         sodipodi:role="line"
         x="0"
         y="893.59357"
         id="tspan67731"
         style="font-style:normal;font-variant:normal;font-weight:normal;font-stretch:normal;font-size:16px;font-family:'agave Nerd Font Mono';-inkscape-font-specification:'agave Nerd Font Mono';fill:#a7b1d6;fill-opacity:1">                                   14   core/core-dumper.el</tspan><tspan
         sodipodi:role="line"
         x="0"
         y="914.39044"
         id="tspan67733"
         style="font-style:normal;font-variant:normal;font-weight:normal;font-stretch:normal;font-size:16px;font-family:'agave Nerd Font Mono';-inkscape-font-specification:'agave Nerd Font Mono';fill:#a7b1d6;fill-opacity:1">                                   15   tests/core/core-configuration-layer-utest.el</tspan><tspan
         sodipodi:role="line"
         x="0"
         y="935.18732"
         id="tspan67735"
         style="font-style:normal;font-variant:normal;font-weight:normal;font-stretch:normal;font-size:16px;font-family:'agave Nerd Font Mono';-inkscape-font-specification:'agave Nerd Font Mono';fill:#a7b1d6;fill-opacity:1">                                   16   tests/core/core-configuration-layer-ftest.el</tspan><tspan
         sodipodi:role="line"
         x="0"
         y="955.18732"
         id="tspan67737"
         style="font-style:normal;font-variant:normal;font-weight:normal;font-stretch:normal;font-size:16px;font-family:'agave Nerd Font Mono';-inkscape-font-specification:'agave Nerd Font Mono';fill:#a7b1d6;fill-opacity:1">                               17   ~/.emacs.d/</tspan><tspan
         sodipodi:role="line"
         x="0"
         y="975.18732"
         id="tspan67739"
         style="font-style:normal;font-variant:normal;font-weight:normal;font-stretch:normal;font-size:16px;font-family:'agave Nerd Font Mono';-inkscape-font-specification:'agave Nerd Font Mono';fill:#a7b1d6;fill-opacity:1">                               18   ~/code/APCD10Cr_Carson_2022/</tspan><tspan
         sodipodi:role="line"
         x="0"
         y="995.18732"
         id="tspan67741"
         style="font-style:normal;font-variant:normal;font-weight:normal;font-stretch:normal;font-size:16px;font-family:'agave Nerd Font Mono';-inkscape-font-specification:'agave Nerd Font Mono';fill:#a7b1d6;fill-opacity:1">                                   19   README.md</tspan><tspan
         sodipodi:role="line"
         x="0"
         y="1015.1873"
         id="tspan67743"
         style="font-style:normal;font-variant:normal;font-weight:normal;font-stretch:normal;font-size:16px;font-family:'agave Nerd Font Mono';-inkscape-font-specification:'agave Nerd Font Mono';fill:#a7b1d6;fill-opacity:1">                                   20   APCD10Cr_model_20211222.slim</tspan><tspan
         sodipodi:role="line"
         x="0"
         y="1035.1873"
         id="tspan67745"
         style="font-style:normal;font-variant:normal;font-weight:normal;font-stretch:normal;font-size:16px;font-family:'agave Nerd Font Mono';-inkscape-font-specification:'agave Nerd Font Mono';fill:#a7b1d6;fill-opacity:1">                                   21   frdr_response_email.txt</tspan><tspan
         sodipodi:role="line"
         x="0"
         y="1055.9841"
         id="tspan67747"
         style="font-style:normal;font-variant:normal;font-weight:normal;font-stretch:normal;font-size:16px;font-family:'agave Nerd Font Mono';-inkscape-font-specification:'agave Nerd Font Mono';fill:#a7b1d6;fill-opacity:1">                                   22   APCD10Cr_generate_parameter_files.sh</tspan><tspan
         sodipodi:role="line"
         x="0"
         y="1076.781"
         id="tspan67749"
         style="font-style:normal;font-variant:normal;font-weight:normal;font-stretch:normal;font-size:16px;font-family:'agave Nerd Font Mono';-inkscape-font-specification:'agave Nerd Font Mono';fill:#a7b1d6;fill-opacity:1">                                   23   APCD10Cr_mutations-app.R</tspan><tspan
         sodipodi:role="line"
         x="0"
         y="1096.781"
         id="tspan67751"
         style="font-style:normal;font-variant:normal;font-weight:normal;font-stretch:normal;font-size:16px;font-family:'agave Nerd Font Mono';-inkscape-font-specification:'agave Nerd Font Mono';fill:#a7b1d6;fill-opacity:1">                               24   ~/code/APCD10Cr_Carson_2022/c22pkg/</tspan><tspan
         sodipodi:role="line"
         x="0"
         y="1116.781"
         id="tspan67753"
         style="font-style:normal;font-variant:normal;font-weight:normal;font-stretch:normal;font-size:16px;font-family:'agave Nerd Font Mono';-inkscape-font-specification:'agave Nerd Font Mono';fill:#a7b1d6;fill-opacity:1">                                   25   README.md</tspan><tspan
         sodipodi:role="line"
         x="0"
         y="1136.781"
         id="tspan67755"
         style="font-style:normal;font-variant:normal;font-weight:normal;font-stretch:normal;font-size:16px;font-family:'agave Nerd Font Mono';-inkscape-font-specification:'agave Nerd Font Mono';fill:#a7b1d6;fill-opacity:1">                               26   ~/code/spacemacs-devel/</tspan><tspan
         sodipodi:role="line"
         x="0"
         y="1157.5779"
         id="tspan67757"
         style="font-style:normal;font-variant:normal;font-weight:normal;font-stretch:normal;font-size:16px;font-family:'agave Nerd Font Mono';-inkscape-font-specification:'agave Nerd Font Mono';fill:#a7b1d6;fill-opacity:1">                                   27   comparison-of-spacemacs-and-doom-emacs.org</tspan><tspan
         sodipodi:role="line"
         x="0"
         y="1178.3748"
         id="tspan67759"
         style="font-style:normal;font-variant:normal;font-weight:normal;font-stretch:normal;font-size:16px;font-family:'agave Nerd Font Mono';-inkscape-font-specification:'agave Nerd Font Mono';fill:#a7b1d6;fill-opacity:1">                                   28   spacemacs.org</tspan><tspan
         sodipodi:role="line"
         x="0"
         y="1199.1716"
         id="tspan67761"
         style="font-style:normal;font-variant:normal;font-weight:normal;font-stretch:normal;font-size:16px;font-family:'agave Nerd Font Mono';-inkscape-font-specification:'agave Nerd Font Mono';fill:#a7b1d6;fill-opacity:1">                                   29   spacemacsDocumentation.org</tspan><tspan
         sodipodi:role="line"
         x="0"
         y="1219.1716"
         id="tspan67763"
         style="font-style:normal;font-variant:normal;font-weight:normal;font-stretch:normal;font-size:16px;font-family:'agave Nerd Font Mono';-inkscape-font-specification:'agave Nerd Font Mono';fill:#a7b1d6;fill-opacity:1">                               30   ~/code/Spacemacs-devel/</tspan><tspan
         sodipodi:role="line"
         x="0"
         y="1239.1716"
         id="tspan67765"
         style="font-style:normal;font-variant:normal;font-weight:normal;font-stretch:normal;font-size:16px;font-family:'agave Nerd Font Mono';-inkscape-font-specification:'agave Nerd Font Mono';fill:#a7b1d6;fill-opacity:1">                           </tspan><tspan
         sodipodi:role="line"
         x="0"
         y="1259.1716"
         id="tspan67767"
         style="font-style:normal;font-variant:normal;font-weight:normal;font-stretch:normal;font-size:16px;font-family:'agave Nerd Font Mono';-inkscape-font-specification:'agave Nerd Font Mono';fill:#a7b1d6;fill-opacity:1" /><tspan
         sodipodi:role="line"
         x="0"
         y="1279.1716"
         id="tspan67769"
         style="font-style:normal;font-variant:normal;font-weight:normal;font-stretch:normal;font-size:16px;font-family:'agave Nerd Font Mono';-inkscape-font-specification:'agave Nerd Font Mono';fill:#a7b1d6;fill-opacity:1" /><tspan
         sodipodi:role="line"
         x="0"
         y="1299.1716"
         id="tspan67771"
         style="font-style:normal;font-variant:normal;font-weight:normal;font-stretch:normal;font-size:16px;font-family:'agave Nerd Font Mono';-inkscape-font-specification:'agave Nerd Font Mono';fill:#a7b1d6;fill-opacity:1" /><tspan
         sodipodi:role="line"
         x="0"
         y="1319.1716"
         id="tspan67773"
         style="font-style:normal;font-variant:normal;font-weight:normal;font-stretch:normal;font-size:16px;font-family:'agave Nerd Font Mono';-inkscape-font-specification:'agave Nerd Font Mono';fill:#a7b1d6;fill-opacity:1">                                                                       </tspan><tspan
         sodipodi:role="line"
         x="0"
         y="1339.1716"
         id="tspan67775"
         style="font-style:normal;font-variant:normal;font-weight:normal;font-stretch:normal;font-size:16px;font-family:'agave Nerd Font Mono';-inkscape-font-specification:'agave Nerd Font Mono';fill:#a7b1d6;fill-opacity:1" /><tspan
         sodipodi:role="line"
         x="0"
         y="1359.1716"
         id="tspan67777"
         style="font-style:normal;font-variant:normal;font-weight:normal;font-stretch:normal;font-size:16px;font-family:'agave Nerd Font Mono';-inkscape-font-specification:'agave Nerd Font Mono';fill:#a7b1d6;fill-opacity:1">                                                                  Made with  by the community</tspan><tspan
         sodipodi:role="line"
         x="0"
         y="1379.1716"
         id="tspan67779"
         style="font-style:normal;font-variant:normal;font-weight:normal;font-stretch:normal;font-size:16px;font-family:'agave Nerd Font Mono';-inkscape-font-specification:'agave Nerd Font Mono';fill:#a7b1d6;fill-opacity:1" /><tspan
         sodipodi:role="line"
         x="0"
         y="1399.1716"
         id="tspan67781"
         style="font-style:normal;font-variant:normal;font-weight:normal;font-stretch:normal;font-size:16px;font-family:'agave Nerd Font Mono';-inkscape-font-specification:'agave Nerd Font Mono';fill:#a7b1d6;fill-opacity:1">                                                                     [Proudly free software]</tspan><tspan
         sodipodi:role="line"
         x="0"
         y="1419.1716"
         id="tspan67783"
         style="font-style:normal;font-variant:normal;font-weight:normal;font-stretch:normal;font-size:16px;font-family:'agave Nerd Font Mono';-inkscape-font-specification:'agave Nerd Font Mono';fill:#a7b1d6;fill-opacity:1" /><tspan
         sodipodi:role="line"
         x="0"
         y="1439.1716"
         id="tspan67785"
         style="font-style:normal;font-variant:normal;font-weight:normal;font-stretch:normal;font-size:16px;font-family:'agave Nerd Font Mono';-inkscape-font-specification:'agave Nerd Font Mono';fill:#a7b1d6;fill-opacity:1">                                                                             </tspan><tspan
         sodipodi:role="line"
         x="0"
         y="1459.1716"
         id="tspan67787"
         style="font-style:normal;font-variant:normal;font-weight:normal;font-stretch:normal;font-size:16px;font-family:'agave Nerd Font Mono';-inkscape-font-specification:'agave Nerd Font Mono';fill:#a7b1d6;fill-opacity:1" /><tspan
         sodipodi:role="line"
         x="0"
         y="1479.1716"
         id="tspan67789"
         style="font-style:normal;font-variant:normal;font-weight:normal;font-stretch:normal;font-size:16px;font-family:'agave Nerd Font Mono';-inkscape-font-specification:'agave Nerd Font Mono';fill:#a7b1d6;fill-opacity:1" /><tspan
         sodipodi:role="line"
         x="0"
         y="1499.1716"
         id="tspan67791"
         style="font-style:normal;font-variant:normal;font-weight:normal;font-stretch:normal;font-size:16px;font-family:'agave Nerd Font Mono';-inkscape-font-specification:'agave Nerd Font Mono';fill:#a7b1d6;fill-opacity:1" /><tspan
         sodipodi:role="line"
         x="0"
         y="1519.1716"
         id="tspan67793"
         style="font-style:normal;font-variant:normal;font-weight:normal;font-stretch:normal;font-size:16px;font-family:'agave Nerd Font Mono';-inkscape-font-specification:'agave Nerd Font Mono';fill:#a7b1d6;fill-opacity:1">                                                      474 packages loaded in 1.719s (e:386 r:15 l:12 b:61)</tspan><tspan
         sodipodi:role="line"
         x="0"
         y="1539.1716"
         id="tspan67795"
         style="font-style:normal;font-variant:normal;font-weight:normal;font-stretch:normal;font-size:16px;font-family:'agave Nerd Font Mono';-inkscape-font-specification:'agave Nerd Font Mono';fill:#a7b1d6;fill-opacity:1">                                                               (0.473s spent in your user-config)</tspan><tspan
         sodipodi:role="line"
         x="0"
         y="1554.877"
         id="tspan67797"
         style="font-style:normal;font-variant:normal;font-weight:normal;font-stretch:normal;font-size:16px;font-family:'agave Nerd Font Mono';-inkscape-font-specification:'agave Nerd Font Mono';fill:#a7b1d6;fill-opacity:1" /></text>
    <path
       style="fill:#ffb380;stroke:#927cba;stroke-width:3.95834;stroke-linecap:butt;stroke-linejoin:miter;stroke-miterlimit:4;stroke-dasharray:11.875, 11.875;stroke-dashoffset:0;stroke-opacity:1;marker-start:url(#marker117594);marker-end:url(#Arrow2Lend)"
       d="M 7.6845735,243.0045 H 676.53179"
       id="path94272" />
    <path
       style="fill:none;stroke:#927cba;stroke-width:4.0353;stroke-linecap:butt;stroke-linejoin:miter;stroke-miterlimit:4;stroke-dasharray:12.1059, 12.1059;stroke-dashoffset:0;stroke-opacity:1;marker-start:url(#marker117594);marker-end:url(#Arrow2Lend)"
       d="M 469.49838,24.603738 H 899.92549"
       id="path117196" />
    <path
       style="fill:none;stroke:#927cba;stroke-width:3.82228;stroke-linecap:butt;stroke-linejoin:miter;stroke-miterlimit:4;stroke-dasharray:11.4668, 11.4668;stroke-dashoffset:0;stroke-opacity:1;marker-start:url(#marker117594);marker-end:url(#Arrow2Lend)"
       d="M 479.92035,27.414732 V 413.59676"
       id="path117866" />
    <text
       xml:space="preserve"
       id="text121985"
       style="font-size:37.3333px;line-height:1.25;font-family:sans-serif;white-space:pre;shape-inside:url(#rect121987)"
       transform="translate(252.31946,-18.024432)"><tspan
         x="-786.32422"
         y="46.589512"
         id="tspan134842">1. Determine size of window
</tspan><tspan
         x="-786.32422"
         y="93.256138"
         id="tspan134844">2. Determine size of image / </tspan><tspan
         x="-786.32422"
         y="139.92276"
         id="tspan134846">ASCII banner
</tspan><tspan
         x="-786.32422"
         y="186.58939"
         id="tspan134848">3. Narrow to the region of the </tspan><tspan
         x="-786.32422"
         y="233.25602"
         id="tspan134850">buffer where the ASCII banner </tspan><tspan
         x="-786.32422"
         y="279.92264"
         id="tspan134852">will display</tspan></text>
    <text
       xml:space="preserve"
       id="text133715"
       style="font-size:10.6667px;line-height:1.25;font-family:sans-serif;white-space:pre;shape-inside:url(#rect133717)" />
  </g>
</svg>
